<svg xmlns="http://www.w3.org/2000/svg" viewBox="0 0 32 32" width="32" height="32">
  <defs>
    <!-- Gradient for Singapore Government Red -->
    <linearGradient id="redGradient" x1="0%" y1="0%" x2="100%" y2="100%">
      <stop offset="0%" style="stop-color:#e4002b;stop-opacity:1" />
      <stop offset="100%" style="stop-color:#c4002b;stop-opacity:1" />
    </linearGradient>
    
    <!-- Gradient for Corporate Blue -->
    <linearGradient id="blueGradient" x1="0%" y1="0%" x2="100%" y2="100%">
      <stop offset="0%" style="stop-color:#0066cc;stop-opacity:1" />
      <stop offset="100%" style="stop-color:#004d99;stop-opacity:1" />
    </linearGradient>
    
    <!-- Drop shadow filter -->
    <filter id="dropshadow" x="-20%" y="-20%" width="140%" height="140%">
      <feGaussianBlur in="SourceAlpha" stdDeviation="1"/>
      <feOffset dx="1" dy="1" result="offset"/>
      <feComponentTransfer>
        <feFuncA type="linear" slope="0.3"/>
      </feComponentTransfer>
      <feMerge> 
        <feMergeNode/>
        <feMergeNode in="SourceGraphic"/> 
      </feMerge>
    </filter>
  </defs>
  
  <!-- Background circle -->
  <circle cx="16" cy="16" r="15" fill="white" stroke="#e5e7eb" stroke-width="1"/>
  
  <!-- Shield background representing security -->
  <path d="M16 3L8 6v7c0 5 2.8 9.7 8 11 5.2-1.3 8-6 8-11V6l-8-3z" 
        fill="url(#redGradient)" 
        filter="url(#dropshadow)"/>
  
  <!-- Individual user icon (SingPass) - left side -->
  <circle cx="12" cy="11" r="2.5" fill="white" opacity="0.9"/>
  <path d="M7 20c0-2.8 2.2-5 5-5s5 2.2 5 5" 
        stroke="white" 
        stroke-width="1.5" 
        fill="none" 
        opacity="0.9"/>
  
  <!-- Corporate/Building icon (CorpPass) - right side -->
  <rect x="19" y="12" width="6" height="8" fill="url(#blueGradient)" opacity="0.9" rx="1"/>
  <rect x="20" y="13" width="1" height="1" fill="white" opacity="0.8"/>
  <rect x="22" y="13" width="1" height="1" fill="white" opacity="0.8"/>
  <rect x="24" y="13" width="1" height="1" fill="white" opacity="0.8"/>
  <rect x="20" y="15" width="1" height="1" fill="white" opacity="0.8"/>
  <rect x="22" y="15" width="1" height="1" fill="white" opacity="0.8"/>
  <rect x="24" y="15" width="1" height="1" fill="white" opacity="0.8"/>
  <rect x="20" y="17" width="1" height="1" fill="white" opacity="0.8"/>
  <rect x="22" y="17" width="1" height="1" fill="white" opacity="0.8"/>
  <rect x="24" y="17" width="1" height="1" fill="white" opacity="0.8"/>
  
  <!-- Central checkmark representing verification -->
  <path d="M12 16l2 2 4-4" 
        stroke="white" 
        stroke-width="2" 
        fill="none" 
        stroke-linecap="round" 
        stroke-linejoin="round"/>
  
  <!-- Small connection dots representing SSO -->
  <circle cx="10" cy="22" r="1" fill="url(#blueGradient)" opacity="0.7"/>
  <circle cx="16" cy="24" r="1" fill="url(#redGradient)" opacity="0.7"/>
  <circle cx="22" cy="22" r="1" fill="url(#blueGradient)" opacity="0.7"/>
  
  <!-- Connection lines -->
  <path d="M10 22 L16 24 L22 22" 
        stroke="#6b7280" 
        stroke-width="0.5" 
        opacity="0.5"/>
</svg>